<?xml version="1.0" encoding="UTF-8"?>
<svg version="1.1" xmlns="http://www.w3.org/2000/svg" width="1344" height="768">
<path d="M0 0 C443.52 0 887.04 0 1344 0 C1344 253.44 1344 506.88 1344 768 C900.48 768 456.96 768 0 768 C0 514.56 0 261.12 0 0 Z " fill="#FEFEFE" transform="translate(0,0)"/>
<path d="M0 0 C0.79083984 0.09896576 1.58167969 0.19793152 2.39648438 0.29989624 C12.3428177 1.56149452 22.02057198 3.31880113 31.74926758 5.75073242 C34.60034137 6.45026618 37.42263792 7.05764654 40.3125 7.5625 C67.51313694 12.82563694 67.51313694 12.82563694 73.3125 18.625 C73.42035335 20.71200695 73.45664202 22.80271741 73.46640015 24.89248657 C73.4707824 25.55498268 73.47516465 26.21747878 73.4796797 26.90005052 C73.49311559 29.13730857 73.4992578 31.37452718 73.50537109 33.61181641 C73.51326974 35.21009501 73.52153854 36.80837182 73.53015137 38.40664673 C73.55644912 43.67993451 73.57170943 48.95323042 73.5859375 54.2265625 C73.59129832 56.04654317 73.59667583 57.86652379 73.60206985 59.68650436 C73.62373017 67.27319208 73.64245514 74.85987765 73.65369225 82.44658852 C73.66984469 93.27935913 73.7027716 104.11176597 73.76009309 114.94439948 C73.79908092 122.5769875 73.81835999 130.20947955 73.82361281 137.8421644 C73.8272337 142.38869196 73.83889654 146.93483232 73.87171555 151.48125076 C74.19427009 198.51883518 62.14673685 234.45649007 29.3125 268.625 C28.45527344 269.52347656 27.59804688 270.42195313 26.71484375 271.34765625 C20.94503907 277.26376342 14.82281412 282.54135666 8.3125 287.625 C7.43464844 288.31980469 6.55679688 289.01460938 5.65234375 289.73046875 C-14.10133817 304.98331175 -36.1253967 317.99477825 -58.6875 328.625 C-59.5125 329.04523438 -60.3375 329.46546875 -61.1875 329.8984375 C-62.363125 330.47464844 -62.363125 330.47464844 -63.5625 331.0625 C-64.21992187 331.39121094 -64.87734375 331.71992187 -65.5546875 332.05859375 C-70.5141842 333.37567621 -75.04329822 331.1993745 -79.43359375 329 C-80.51092773 328.4627832 -81.58826172 327.92556641 -82.69824219 327.37207031 C-83.82907227 326.79553711 -84.95990234 326.21900391 -86.125 325.625 C-87.87345215 324.74086426 -87.87345215 324.74086426 -89.65722656 323.83886719 C-98.24841652 319.45365618 -106.55881071 314.81004559 -114.6875 309.625 C-115.86032724 308.89136751 -117.03351035 308.15830365 -118.20703125 307.42578125 C-131.47475279 299.08440177 -143.93792306 290.00087018 -155.6875 279.625 C-156.20054687 279.17511719 -156.71359375 278.72523438 -157.2421875 278.26171875 C-185.36978978 253.48943959 -208.59971878 220.0209503 -211.6875 181.625 C-211.83117526 176.33461285 -211.81406414 171.04567419 -211.80102539 165.75390625 C-211.800743 164.14683535 -211.80090226 162.53976431 -211.8014679 160.93269348 C-211.80175386 156.58825304 -211.79588958 152.24384043 -211.78889394 147.89940643 C-211.78262698 143.35237266 -211.78205396 138.8053382 -211.78086853 134.25830078 C-211.77776505 125.65602262 -211.76956495 117.05375723 -211.75951904 108.45148468 C-211.74832733 98.6546312 -211.74283975 88.8577771 -211.73782361 79.06091881 C-211.7273815 58.91560542 -211.70980114 38.77030352 -211.6875 18.625 C-210.26698951 17.98449399 -208.84547682 17.34621037 -207.42355347 16.70884705 C-206.63205839 16.35316115 -205.84056332 15.99747526 -205.02508354 15.63101101 C-193.77383423 10.78888217 -181.48622417 8.18323032 -169.5625 5.5625 C-168.7894754 5.39135681 -168.01645081 5.22021362 -167.22000122 5.04388428 C-151.8053281 1.65561536 -136.39271138 -0.73917977 -120.6875 -2.375 C-119.11766357 -2.54854004 -119.11766357 -2.54854004 -117.51611328 -2.72558594 C-78.53963488 -6.89743705 -38.78184564 -4.9293916 0 0 Z " fill="#D8B25F" transform="translate(732.6875,221.375)"/>
<path d="M0 0 C5.36028924 0.44131952 10.48701419 0.87430466 15.625 2.5625 C16.88183594 2.96662109 16.88183594 2.96662109 18.1640625 3.37890625 C18.76992188 3.58386719 19.37578125 3.78882813 20 4 C20.01458252 4.71430176 20.02916504 5.42860352 20.04418945 6.16455078 C20.37506365 25.29520925 20.37506365 25.29520925 24 44 C24.23847656 44.90363281 24.47695313 45.80726563 24.72265625 46.73828125 C31.28526207 70.37083446 47.09646722 88.73529625 68 101 C69.32279286 101.37297176 70.65511974 101.7168287 72 102 C72 102.66 72 103.32 72 104 C72.76183594 104.18175781 73.52367187 104.36351562 74.30859375 104.55078125 C75.34113281 104.80214844 76.37367188 105.05351562 77.4375 105.3125 C78.44683594 105.55613281 79.45617187 105.79976563 80.49609375 106.05078125 C83.17835269 106.77741327 85.73379744 107.5862706 88.3515625 108.5 C100.62584028 112.64126373 113.70586758 113.27296376 126.5625 113.3125 C127.63169678 113.31789795 128.70089355 113.3232959 129.80249023 113.32885742 C136.74737807 113.26673857 143.20621142 112.37294017 150 111 C151.41109856 110.77573921 152.82382683 110.5613917 154.23828125 110.359375 C162.89348557 109.08272186 171.30250642 107.2867934 179.75 105 C181.14279175 104.62633301 181.14279175 104.62633301 182.5637207 104.24511719 C187.35904024 102.90721471 191.55961032 101.28829898 196 99 C196.99 99 197.98 99 199 99 C198.99111755 98.23214172 198.98223511 97.46428345 198.9730835 96.67315674 C198.89290974 89.43409545 198.83202195 82.19524965 198.79275131 74.95586014 C198.77188296 71.23405252 198.74358019 67.51261198 198.69824219 63.79101562 C198.65475587 60.1989049 198.63085723 56.60714705 198.62049103 53.0147934 C198.6131045 51.64482823 198.59867999 50.27488223 198.57707977 48.90506744 C198.5480152 46.98540611 198.54636584 45.0653891 198.54589844 43.14550781 C198.53701599 42.05296692 198.52813354 40.96042603 198.51898193 39.83477783 C199.11798627 36.30467296 200.19053625 35.15535527 203 33 C206.234375 32.171875 206.234375 32.171875 209.75 31.75 C210.92046875 31.60046875 212.0909375 31.4509375 213.296875 31.296875 C214.63492188 31.14992188 214.63492188 31.14992188 216 31 C216 27.7 216 24.4 216 21 C190.59 21 165.18 21 139 21 C139 24.3 139 27.6 139 31 C140.73636719 31.05607422 140.73636719 31.05607422 142.5078125 31.11328125 C144.04690561 31.17897425 145.5859667 31.24542042 147.125 31.3125 C147.88554688 31.33505859 148.64609375 31.35761719 149.4296875 31.38085938 C154.28274448 31.61096121 157.8051724 32.31607535 162 35 C164.23077928 38.34616892 164.24524037 39.39593959 164.22705078 43.29760742 C164.22682419 44.91894844 164.22682419 44.91894844 164.22659302 46.57304382 C164.21627045 47.73874405 164.20594788 48.90444427 164.1953125 50.10546875 C164.1924826 51.29981033 164.18965271 52.49415192 164.18673706 53.72468567 C164.17552677 57.54572497 164.15042037 61.36653134 164.125 65.1875 C164.11497131 67.77538724 164.10584527 70.36327816 164.09765625 72.95117188 C164.07558465 79.30086096 164.0420986 85.65041384 164 92 C154.03377135 95.54720644 145.32504549 97.76903239 134.625 97.4375 C133.54089844 97.43169922 132.45679688 97.42589844 131.33984375 97.41992188 C117.15862767 97.20609172 105.09569758 93.42235988 93 86 C93 85.34 93 84.68 93 84 C92.26136719 83.73574219 91.52273438 83.47148437 90.76171875 83.19921875 C78.0376508 77.6740577 69.5063047 61.65958111 64.24609375 49.5 C59.9054113 37.30798912 58.35085771 24.87647795 58 12 C58.56283691 12.05534912 59.12567383 12.11069824 59.70556641 12.16772461 C62.34519681 12.42620075 64.98509446 12.68184981 67.625 12.9375 C68.50929688 13.02451172 69.39359375 13.11152344 70.3046875 13.20117188 C73.20206557 13.4805619 76.10057415 13.74274965 79 14 C80.00957764 14.09410156 81.01915527 14.18820312 82.05932617 14.28515625 C92.08211457 15.12256938 102.07653821 15.15216704 112.12866211 15.13037109 C115.03309457 15.12505383 117.93736935 15.13032404 120.84179688 15.13671875 C138.63230196 15.14510556 156.30576157 14.70666682 173.9375 12.1875 C175.21399414 12.01009277 176.49048828 11.83268555 177.80566406 11.64990234 C194.92118152 9.22230638 211.71870897 5.98314603 228.52441406 1.93017578 C229.57081055 1.67993652 230.61720703 1.42969727 231.6953125 1.171875 C233.0877417 0.8330127 233.0877417 0.8330127 234.50830078 0.48730469 C237 0 237 0 241 0 C241.07501608 6.13400703 241.12900518 12.26773805 241.16479492 18.40209961 C241.17973905 20.48222515 241.20010177 22.56231998 241.22631836 24.64233398 C241.37594653 36.83262921 241.14560802 48.16975742 238 60 C237.81171631 60.75192627 237.62343262 61.50385254 237.42944336 62.27856445 C230.09341606 89.72684638 209.08189203 115.98666469 186 132 C185.34 132 184.68 132 184 132 C184 132.66 184 133.32 184 134 C181.9453125 135.48046875 181.9453125 135.48046875 179.125 137.1875 C175.40937453 139.48022055 171.78925586 141.81887077 168.25 144.375 C159.25868381 150.73610605 149.62846727 156.31739481 139.8828125 161.4375 C137.63919678 162.65355188 135.47847586 163.91842979 133.3046875 165.25 C123.91515955 170.87503037 123.91515955 170.87503037 119.60546875 171.15625 C117.10417209 170.42929571 115.229833 169.36093094 113 168 C111.76433251 167.32074419 110.5257677 166.64674593 109.28515625 165.9765625 C105.78754565 164.06612393 102.33615346 162.08391816 98.88916016 160.08398438 C96.39064667 158.65035813 93.85449165 157.2922364 91.3125 155.9375 C86.06776667 153.09693339 81.00602895 149.98409911 75.9453125 146.83203125 C74.02900717 145.64005884 72.08655397 144.48881679 70.1171875 143.38671875 C69.06917969 142.70029297 69.06917969 142.70029297 68 142 C68 141.34 68 140.68 68 140 C67.29875 139.76023437 66.5975 139.52046875 65.875 139.2734375 C54.93170638 134.42627212 45.56820001 124.18245567 37 116 C36.33355469 115.38640625 35.66710937 114.7728125 34.98046875 114.140625 C15.4891327 95.69917357 0.90364144 67.56422611 -0.08726501 40.62782288 C-0.11481973 38.02213263 -0.11261177 35.41829074 -0.09765625 32.8125 C-0.0962413 31.86938965 -0.09482635 30.9262793 -0.09336853 29.95458984 C-0.0878124 26.96969303 -0.07526823 23.98487379 -0.0625 21 C-0.05747932 18.96484484 -0.05291741 16.92968849 -0.04882812 14.89453125 C-0.03785737 9.92965803 -0.02062339 4.96484213 0 0 Z " fill="#BD8C30" transform="translate(543,359)"/>
<path d="M0 0 C0.33 0 0.66 0 1 0 C1.09361722 9.30291928 1.16422163 18.60567083 1.20724869 27.90896225 C1.22792313 32.23114681 1.25586051 36.55300386 1.30175781 40.875 C1.7551849 84.77213951 1.7551849 84.77213951 -6.625 104.0625 C-6.96200928 104.86921143 -7.29901855 105.67592285 -7.64624023 106.50708008 C-12.70620617 118.33585507 -18.19826476 130.8007973 -26.91796875 140.40625 C-27.27503906 140.9321875 -27.63210938 141.458125 -28 142 C-27.67 142.99 -27.34 143.98 -27 145 C-27.66 145 -28.32 145 -29 145 C-29.10699219 145.75152344 -29.21398437 146.50304687 -29.32421875 147.27734375 C-30.47407336 151.90999497 -33.75302858 154.62493193 -37 158 C-37.90621094 158.94617188 -38.81242188 159.89234375 -39.74609375 160.8671875 C-46.11614852 167.4214696 -52.76838951 173.39370168 -60 179 C-61.31291016 180.03833984 -61.31291016 180.03833984 -62.65234375 181.09765625 C-82.40132576 196.35949228 -104.43684065 209.36928069 -127 220 C-127.825 220.42023438 -128.65 220.84046875 -129.5 221.2734375 C-130.28375 221.65757812 -131.0675 222.04171875 -131.875 222.4375 C-132.86113281 222.93056641 -132.86113281 222.93056641 -133.8671875 223.43359375 C-138.8266842 224.75067621 -143.35579822 222.5743745 -147.74609375 220.375 C-148.82342773 219.8377832 -149.90076172 219.30056641 -151.01074219 218.74707031 C-152.14157227 218.17053711 -153.27240234 217.59400391 -154.4375 217 C-156.18595215 216.11586426 -156.18595215 216.11586426 -157.96972656 215.21386719 C-166.56091652 210.82865618 -174.87131071 206.18504559 -183 201 C-184.17282724 200.26636751 -185.34601035 199.53330365 -186.51953125 198.80078125 C-199.78725279 190.45940177 -212.25042306 181.37587018 -224 171 C-224.51304687 170.55011719 -225.02609375 170.10023438 -225.5546875 169.63671875 C-233.23047126 162.87657417 -240.26043143 155.69780107 -247 148 C-247.47066895 147.52385254 -247.94133789 147.04770508 -248.42626953 146.55712891 C-251.00793427 143.81768066 -252.0012091 142.51265797 -251.9921875 138.6875 C-252.00332325 133.43142655 -254.36640259 130.34774117 -257.125 126 C-268.7595552 106.73409756 -275.20552514 85.71990752 -275.09765625 63.16015625 C-275.0962413 62.03806259 -275.09482635 60.91596893 -275.09336853 59.75987244 C-275.087794 56.19405392 -275.07524616 52.62829938 -275.0625 49.0625 C-275.05748171 46.6373707 -275.05291938 44.21224041 -275.04882812 41.78710938 C-275.03783291 35.85805128 -275.0211202 29.92903021 -275 24 C-273.58249437 24.11509661 -272.16598831 24.24253658 -270.75 24.375 C-269.96109375 24.44460938 -269.1721875 24.51421875 -268.359375 24.5859375 C-265.914123 25.01507113 -264.15163097 25.78600638 -262 27 C-261.98541748 28.29921387 -261.97083496 29.59842773 -261.95581055 30.93701172 C-261.89699178 35.84644495 -261.81978006 40.75545861 -261.73754883 45.66455078 C-261.70468643 47.77255344 -261.67654003 49.88063594 -261.65356445 51.98876953 C-261.38939029 76.61563578 -261.38939029 76.61563578 -254.8125 100.1875 C-254.51061768 100.92250732 -254.20873535 101.65751465 -253.89770508 102.41479492 C-246.26764048 120.55991393 -235.5226767 134.84002484 -222 149 C-221.23816406 149.80308594 -220.47632813 150.60617187 -219.69140625 151.43359375 C-200.70753046 170.95889915 -176.54607134 184.99847211 -152.6875 197.6875 C-151.7269873 198.20505859 -150.76647461 198.72261719 -149.77685547 199.25585938 C-142.76164079 202.93635883 -142.76164079 202.93635883 -135 204 C-132.30949042 202.99765329 -130.10165801 202.00272697 -127.625 200.625 C-126.94018555 200.26212891 -126.25537109 199.89925781 -125.54980469 199.52539062 C-124.09928557 198.75502868 -122.65272213 197.97717794 -121.20996094 197.19238281 C-119.02167677 196.01169569 -116.81656089 194.87184653 -114.6015625 193.7421875 C-104.3728648 188.4973764 -94.9633577 182.52810258 -85.58984375 175.8671875 C-84.82091797 175.32167236 -84.05199219 174.77615723 -83.25976562 174.21411133 C-81.7355824 173.13010171 -80.21462678 172.04153655 -78.69726562 170.94799805 C-78.00181641 170.45082275 -77.30636719 169.95364746 -76.58984375 169.44140625 C-75.96972412 168.99482666 -75.34960449 168.54824707 -74.71069336 168.08813477 C-73 167 -73 167 -70 166 C-70 165.34 -70 164.68 -70 164 C-68.38061523 162.60961914 -68.38061523 162.60961914 -66.12109375 160.97265625 C-37.92760643 139.62765538 -18.56125652 109.53461296 -13.48583984 74.4453125 C-12.87868978 69.500493 -12.77389267 64.57082821 -12.68359375 59.59375 C-12.6524221 58.14579041 -12.6524221 58.14579041 -12.62062073 56.6685791 C-12.55571038 53.61245213 -12.49651484 50.55624592 -12.4375 47.5 C-12.39425901 45.41665877 -12.35064302 43.33332529 -12.30664062 41.25 C-12.20008975 36.166746 -12.09866085 31.08341301 -12 26 C-8.04 25.34 -4.08 24.68 0 24 C0 16.08 0 8.16 0 0 Z " fill="#CA9C41" transform="translate(801,330)"/>
<path d="M0 0 C0.33 0 0.66 0 1 0 C1.00410889 1.17691406 1.00821777 2.35382813 1.01245117 3.56640625 C1.26017 50.73352521 8.32504226 86.61264251 42.0625 121.3125 C50.26470241 129.31784955 59.67227746 137.83613873 70 143 C70 143.66 70 144.32 70 145 C70.68191406 145.24492187 71.36382813 145.48984375 72.06640625 145.7421875 C75.55506106 147.23798889 78.71417311 149.14002759 81.9375 151.125 C83.28062727 151.93982945 84.62439164 152.75360954 85.96875 153.56640625 C86.64421875 153.9752002 87.3196875 154.38399414 88.015625 154.80517578 C96.06427486 159.65139778 104.23705342 164.20774603 112.625 168.4375 C113.30038818 168.77982666 113.97577637 169.12215332 114.67163086 169.47485352 C116.43187194 170.34929586 118.21500701 171.17726185 120 172 C120.99966797 172.46792969 120.99966797 172.46792969 122.01953125 172.9453125 C125.45418034 173.04015488 128.16726022 171.09858959 131.0625 169.4375 C131.73514893 169.06399414 132.40779785 168.69048828 133.10083008 168.30566406 C134.45617431 167.55260527 135.80901039 166.79501295 137.15917969 166.03271484 C139.48042456 164.730478 141.83449038 163.49373366 144.1875 162.25 C156.48631798 155.49482834 168.62907735 148.37494407 179.86254883 139.94628906 C183.81225768 137 183.81225768 137 186 137 C186 136.34 186 135.68 186 135 C188.03046897 133.32874443 190.07747902 131.75266178 192.1875 130.1875 C220.69234761 108.3541545 237.95322098 78.6594781 243 43 C243.33 43 243.66 43 244 43 C244 46.63 244 50.26 244 54 C244.66 53.67 245.32 53.34 246 53 C243.00655722 83.14087216 224.84558845 106.16817066 204.1875 126.9375 C203.4457251 127.68402832 202.7039502 128.43055664 201.93969727 129.19970703 C201.23127686 129.90595215 200.52285645 130.61219727 199.79296875 131.33984375 C199.1589917 131.97269287 198.52501465 132.60554199 197.87182617 133.25756836 C192.77721732 138 192.77721732 138 190 138 C190 138.66 190 139.32 190 140 C188.38623047 141.36938477 188.38623047 141.36938477 186.1171875 142.94140625 C185.28687012 143.52051758 184.45655273 144.09962891 183.60107422 144.69628906 C182.70146973 145.31213867 181.80186523 145.92798828 180.875 146.5625 C179.9586377 147.19510742 179.04227539 147.82771484 178.09814453 148.47949219 C175.4058611 150.33034856 172.70548495 152.16850703 170 154 C169.3296875 154.4542334 168.659375 154.9084668 167.96875 155.37646484 C158.326418 161.86019302 148.26458504 167.5683041 138 173 C137.35514648 173.34289062 136.71029297 173.68578125 136.04589844 174.0390625 C134.31389543 174.9460827 132.56362707 175.81797483 130.8125 176.6875 C129.84957031 177.16574219 128.88664063 177.64398437 127.89453125 178.13671875 C122.74780889 179.67170612 118.66096735 178.47081898 113.984375 176.14453125 C112.56689141 175.37822962 111.15559117 174.60040316 109.75 173.8125 C108.9969458 173.40104736 108.2438916 172.98959473 107.46801758 172.56567383 C105.97257311 171.74762962 104.47940601 170.92540569 102.98876953 170.09863281 C100.57152322 168.76330156 98.12817563 167.47939487 95.6875 166.1875 C82.1134006 158.70620247 68.94142931 150.91823173 57 141 C56.44683105 140.54689453 55.89366211 140.09378906 55.32373047 139.62695312 C32.02018495 120.49061443 12.4560816 98.63614443 2.5 69.6875 C2.26869385 69.01984619 2.0373877 68.35219238 1.79907227 67.66430664 C-2.27314106 54.81974467 -2.32097273 41.60481106 -2.26074219 28.27416992 C-2.24989997 25.41108605 -2.26075936 22.54861326 -2.2734375 19.68554688 C-2.27211779 17.85156113 -2.26955932 16.01757575 -2.265625 14.18359375 C-2.26967346 13.33462021 -2.27372192 12.48564667 -2.27789307 11.61094666 C-2.2436478 7.29081878 -2.00978062 3.93623617 0 0 Z " fill="#F3D07B" transform="translate(541,356)"/>
<path d="M0 0 C3.39770112 0.01821498 6.79512618 0.02050885 10.19287109 0.02026367 C29.32949371 0.05027261 48.5650695 0.2828989 67.60302734 2.39331055 C68.73063477 2.51569092 69.85824219 2.63807129 71.02001953 2.76416016 C88.43366141 4.79007489 106.22156974 7.66569883 123.16552734 12.20581055 C118.39264412 14.67454325 115.93554922 15.35473251 110.69287109 13.89331055 C81.32175641 6.13739729 50.24995159 4.63982947 20.01194 4.81929016 C17.87642592 4.83102542 15.74094668 4.83752558 13.60540771 4.84289551 C-7.00792654 4.90345747 -27.37890208 5.40497544 -47.83447266 8.20581055 C-49.01348145 8.35566406 -50.19249023 8.50551758 -51.40722656 8.65991211 C-64.51054126 10.33267569 -77.38839776 12.52723345 -90.2121582 15.71899414 C-91.05818604 15.92733887 -91.90421387 16.13568359 -92.77587891 16.3503418 C-93.88491577 16.63421753 -93.88491577 16.63421753 -95.01635742 16.92382812 C-96.83447266 17.20581055 -96.83447266 17.20581055 -98.83447266 16.20581055 C-98.140625 14.3034668 -98.140625 14.3034668 -96.83447266 12.20581055 C-94.66503906 11.2644043 -94.66503906 11.2644043 -91.93603516 10.64331055 C-90.9133252 10.40580078 -89.89061523 10.16829102 -88.83691406 9.92358398 C-87.7223584 9.68671875 -86.60780273 9.44985352 -85.45947266 9.20581055 C-84.30495605 8.95089844 -83.15043945 8.69598633 -81.9609375 8.43334961 C-69.02450455 5.6708368 -55.96692752 3.75427183 -42.83447266 2.20581055 C-42.13418945 2.11794281 -41.43390625 2.03007507 -40.71240234 1.93954468 C-27.12562186 0.25460899 -13.68242837 -0.07545817 0 0 Z " fill="#D4A53F" transform="translate(649.83447265625,234.794189453125)"/>
<path d="M0 0 C0.66113281 1.80395508 0.66113281 1.80395508 1 4 C0.00292969 5.59643555 0.00292969 5.59643555 -1.578125 7.13671875 C-2.15643066 7.70946533 -2.73473633 8.28221191 -3.33056641 8.87231445 C-3.96397949 9.47132568 -4.59739258 10.07033691 -5.25 10.6875 C-5.89243652 11.31035889 -6.53487305 11.93321777 -7.19677734 12.57495117 C-12.54890967 17.70590454 -18.12288694 22.47848382 -24 27 C-24.87269531 27.68964844 -25.74539063 28.37929688 -26.64453125 29.08984375 C-46.38885414 44.36062775 -68.43577233 57.36877735 -91 68 C-91.825 68.42023438 -92.65 68.84046875 -93.5 69.2734375 C-94.28375 69.65757812 -95.0675 70.04171875 -95.875 70.4375 C-96.53242187 70.76621094 -97.18984375 71.09492187 -97.8671875 71.43359375 C-102.8266842 72.75067621 -107.35579822 70.5743745 -111.74609375 68.375 C-112.82342773 67.8377832 -113.90076172 67.30056641 -115.01074219 66.74707031 C-116.14157227 66.17053711 -117.27240234 65.59400391 -118.4375 65 C-119.60313477 64.41057617 -120.76876953 63.82115234 -121.96972656 63.21386719 C-130.5615944 58.82831017 -138.86818271 54.18083109 -147 49 C-148.31327294 48.18404357 -149.62709243 47.36896626 -150.94140625 46.5546875 C-152.23247992 45.74592252 -153.52286726 44.93606067 -154.8125 44.125 C-155.40643555 43.75536133 -156.00037109 43.38572266 -156.61230469 43.00488281 C-159.47999821 41.17138401 -161.07837906 39.88243141 -163 37 C-162.01 37 -161.02 37 -160 37 C-159.67 36.34 -159.34 35.68 -159 35 C-158.52393311 35.30591064 -158.04786621 35.61182129 -157.55737305 35.92700195 C-148.40922086 41.79103411 -139.21607225 47.55266571 -129.8125 53 C-129.04832764 53.44384033 -128.28415527 53.88768066 -127.49682617 54.3449707 C-122.74510339 57.07579198 -117.9195032 59.58707152 -113 62 C-112.17371094 62.42925781 -111.34742188 62.85851562 -110.49609375 63.30078125 C-105.55387452 65.72968975 -102.4751725 66.60479194 -97 65 C-93.21552918 63.55574965 -89.62270847 61.80926018 -86 60 C-85.33983887 59.67386719 -84.67967773 59.34773437 -83.99951172 59.01171875 C-63.32050582 48.72598215 -44.32374269 36.00755831 -26 22 C-25.34531738 21.50371094 -24.69063477 21.00742187 -24.01611328 20.49609375 C-15.58823207 14.09395682 -7.68437641 7.27623187 0 0 Z " fill="#B7842C" transform="translate(765,482)"/>
<path d="M0 0 C2.33593654 0.00502736 4.67187412 0.00958807 7.0078125 0.01367188 C12.67189838 0.02457421 18.33594412 0.04121345 24 0.0625 C23.67 1.0525 23.34 2.0425 23 3.0625 C21.97455078 3.08231934 20.94910156 3.10213867 19.89257812 3.12255859 C-26.26276687 4.04405551 -71.6656703 7.91440261 -116.09594727 21.2722168 C-120.02850048 22.34238702 -124.0214851 23.17838558 -128 24.0625 C-128 48.4825 -128 72.9025 -128 98.0625 C-128.33 98.0625 -128.66 98.0625 -129 98.0625 C-129.33 75.2925 -129.66 52.5225 -130 29.0625 C-130.66 29.3925 -131.32 29.7225 -132 30.0625 C-132 27.0925 -132 24.1225 -132 21.0625 C-122.52006312 17.04600597 -113.03167056 14.35772094 -103.03515625 12.00488281 C-100.63314779 11.4394181 -98.23441028 10.86150986 -95.8359375 10.28125 C-82.17488064 6.99735982 -68.53913607 4.0317242 -54.5625 2.4375 C-53.57185547 2.31632813 -52.58121094 2.19515625 -51.56054688 2.0703125 C-34.35730468 0.04769489 -17.29896694 -0.0652466 0 0 Z " fill="#C28F31" transform="translate(654,217.9375)"/>
<path d="M0 0 C1.010625 0.144375 2.02125 0.28875 3.0625 0.4375 C4.031875 0.623125 5.00125 0.80875 6 1 C7.38763074 3.77526148 7.13557222 6.03593075 7.14717102 9.14268494 C7.15432632 10.45370682 7.16148163 11.7647287 7.16885376 13.11547852 C7.17169413 14.57690406 7.17440585 16.03832986 7.17700195 17.49975586 C7.18326531 19.03211115 7.189912 20.56446492 7.19691467 22.09681702 C7.2143328 26.26618324 7.22487801 30.43553799 7.2331202 34.60493159 C7.23826719 37.20773376 7.24434297 39.81053234 7.25063133 42.41333199 C7.26968315 50.55104655 7.28391596 58.68875203 7.2922433 66.82648462 C7.30202564 76.23153487 7.32837103 85.63635039 7.36874419 95.04131788 C7.39885634 102.30419206 7.41370738 109.56699876 7.41702431 116.82993418 C7.41937985 121.17118742 7.42840557 125.51218989 7.45348549 129.85337639 C7.4766867 133.9352533 7.48103187 138.0167129 7.47072411 142.09863853 C7.47022673 143.59868504 7.47660627 145.09875154 7.49028015 146.59873581 C7.50787262 148.64252547 7.49854912 150.68649459 7.48774719 152.73033142 C7.49013555 153.87536605 7.4925239 155.02040068 7.49498463 156.20013332 C7 159 7 159 4.9695158 160.89185429 C3.99460548 161.44038641 3.99460548 161.44038641 3 162 C2.97636198 148.91247256 2.95883256 135.82495056 2.94818783 122.73740578 C2.94306746 116.65403084 2.93617981 110.57067096 2.92456055 104.48730469 C2.86285452 71.31131663 3.18410554 38.16636325 4 5 C3.1028125 5.309375 3.1028125 5.309375 2.1875 5.625 C0 6 0 6 -3 4 C-6.94109182 3.01472704 -10.97833923 2.55199266 -15 2 C-10.80250592 -2.8271182 -5.65818798 -2.82909399 0 0 Z " fill="#E4BC5F" transform="translate(781,249)"/>
<path d="M0 0 C21.78 0 43.56 0 66 0 C61.95615265 2.02192367 60.40320945 2.24539164 56.03808594 2.22705078 C54.23667145 2.22682419 54.23667145 2.22682419 52.39886475 2.22659302 C51.10708313 2.21627045 49.81530151 2.20594788 48.484375 2.1953125 C47.14487927 2.19158034 45.80538079 2.18873432 44.46588135 2.18673706 C40.94771735 2.17911657 37.4297196 2.15948187 33.91162109 2.1373291 C30.31870777 2.11683643 26.72576747 2.10772804 23.1328125 2.09765625 C16.08847383 2.07623434 9.04424779 2.04211765 2 2 C2 3.32 2 4.64 2 6 C3.60875 5.9071875 3.60875 5.9071875 5.25 5.8125 C11.88757944 5.83616338 20.21460654 6.71503565 25.1875 11.5 C27 14 27 14 28 17 C27.34 17 26.68 17 26 17 C26.10828125 18.37478516 26.10828125 18.37478516 26.21875 19.77734375 C27.34658091 35.83234853 27.09302969 51.91588141 27 68 C27.99 68 28.98 68 30 68 C26.55384615 72.8 26.55384615 72.8 23.75 73.8125 C23.1725 73.874375 22.595 73.93625 22 74 C22 74.66 22 75.32 22 76 C-0.54017128 80.26771625 -24.47953346 81.16027647 -45 69 C-47.5 66.875 -47.5 66.875 -49 65 C-49 64.34 -49 63.68 -49 63 C-45.46085031 63.56108471 -42.92057422 64.44230899 -39.875 66.3125 C-28.34603895 72.9416526 -17.34238071 74.19035362 -4.25 74.25 C-3.13367188 74.270625 -2.01734375 74.29125 -0.8671875 74.3125 C5.66611586 74.34295829 11.32838442 73.70362873 17.57128906 71.74511719 C20.03216397 70.99013224 22.47444074 70.48767655 25 70 C24.88250606 62.36438593 24.75767262 54.7289174 24.62768555 47.09350586 C24.58431862 44.49490087 24.54264485 41.89626705 24.50268555 39.29760742 C24.44502577 35.56680608 24.38131871 31.83615006 24.31640625 28.10546875 C24.29969376 26.93976852 24.28298126 25.7740683 24.26576233 24.57304382 C24.2358445 22.9517028 24.2358445 22.9517028 24.20532227 21.29760742 C24.18200584 19.86864388 24.18200584 19.86864388 24.15821838 18.41081238 C24.09281922 15.85608802 24.09281922 15.85608802 23 13 C18.22173611 10.87136531 13.27132954 10.40707814 8.125 9.875 C7.34125 9.78863281 6.5575 9.70226562 5.75 9.61328125 C3.83396841 9.4029851 1.9170634 9.20067256 0 9 C0 6.03 0 3.06 0 0 Z " fill="#EECA72" transform="translate(682,381)"/>
<path d="M0 0 C4.49597089 1.37188236 8.46933373 3.18730442 12.625 5.375 C28.83467289 13.64009554 45.78475054 16.6025983 63.875 16.4375 C64.58011719 16.43479095 65.28523437 16.43208191 66.01171875 16.42929077 C85.33967189 16.31787093 121.25684194 15.74315806 136 1 C136.99 3.475 136.99 3.475 138 6 C132.00764798 9.23363518 126.19850807 11.32691264 119.625 13.0625 C118.6661792 13.31999023 117.7073584 13.57748047 116.71948242 13.84277344 C108.61071523 15.96073001 100.4835744 17.46623173 92.19311523 18.65185547 C89.69322471 19.04869883 87.22384409 19.55670961 84.7421875 20.0546875 C60.59496965 24.47122635 34.52058996 20.1795883 12 11 C12 10.34 12 9.68 12 9 C10.91138672 8.84724609 10.91138672 8.84724609 9.80078125 8.69140625 C6.70268347 7.92660387 4.78911705 6.76251495 2.1875 4.9375 C1.39730469 4.38964844 0.60710938 3.84179688 -0.20703125 3.27734375 C-0.79871094 2.85582031 -1.39039063 2.43429687 -2 2 C-1.34 1.34 -0.68 0.68 0 0 Z " fill="#F4D27F" transform="translate(603,452)"/>
<path d="M0 0 C0.33 0 0.66 0 1 0 C1.92958825 43.04422616 -1.54788104 81.09387439 -31 115 C-31.99 115.495 -31.99 115.495 -33 116 C-33 115.01 -33 114.02 -33 113 C-32.34 113 -31.68 113 -31 113 C-31 112.34 -31 111.68 -31 111 C-31.66 110.67 -32.32 110.34 -33 110 C-32.55011719 109.44957031 -32.10023438 108.89914062 -31.63671875 108.33203125 C-11.55967916 82.38074761 -3.49904687 52.56238377 -3.25 20.25 C-3.22173302 18.36585945 -3.19179143 16.48174326 -3.16015625 14.59765625 C-3.08758811 10.06515024 -3.0372499 5.53292809 -3 1 C-2.34 1.33 -1.68 1.66 -1 2 C-0.67 1.34 -0.34 0.68 0 0 Z " fill="#F0CD76" transform="translate(805,362)"/>
<path d="M0 0 C11.90108378 0.43593713 24.6014211 2.85890378 35 9 C36.55879555 12.11759111 36.12952133 15.42514486 36.11352539 18.84619141 C36.11367142 19.65602982 36.11381744 20.46586823 36.1139679 21.30024719 C36.11326977 23.98404596 36.10548204 26.66777581 36.09765625 29.3515625 C36.09579171 31.20958417 36.09436798 33.06760633 36.09336853 34.92562866 C36.08954615 39.82142488 36.07971823 44.71719155 36.06866455 49.61297607 C36.05844444 54.60656331 36.05386962 59.60015532 36.04882812 64.59375 C36.03809573 74.39584634 36.02102264 84.19792071 36 94 C35.01 93.67 34.02 93.34 33 93 C32.67 66.6 32.34 40.2 32 13 C23.75 10.36 15.5 7.72 7 5 C4.69 4.01 2.38 3.02 0 2 C0 1.34 0 0.68 0 0 Z " fill="#BF8D2D" transform="translate(769,230)"/>
<path d="M0 0 C0.33 0 0.66 0 1 0 C1.00423194 0.5613798 1.00846388 1.12275959 1.01282406 1.70115089 C1.11621422 15.37274157 1.2249247 29.04428106 1.33933926 42.71578407 C1.39450925 49.32727026 1.44791983 55.93876091 1.49731445 62.55029297 C1.5450453 68.93047274 1.59739132 75.31059947 1.65294075 81.69071579 C1.67332478 84.12515314 1.69204432 86.55960502 1.70907402 88.99406815 C1.73320549 92.40316262 1.7632482 95.81215749 1.79467773 99.22119141 C1.8004332 100.22820099 1.80618866 101.23521057 1.81211853 102.2727356 C1.86121201 106.9560108 2.03547432 111.39419123 3 116 C3.99 116 4.98 116 6 116 C6.29132812 117.258125 6.58265625 118.51625 6.8828125 119.8125 C10.70265056 135.93437042 15.51122469 150.18029591 23.94921875 164.4765625 C24.46814697 165.36843262 24.46814697 165.36843262 24.99755859 166.27832031 C25.95700565 167.92615778 26.9255606 169.56868208 27.89453125 171.2109375 C29 174 29 174 28.1875 176.375 C27.5996875 177.179375 27.5996875 177.179375 27 178 C9.83400642 155.53517882 -0.2143123 128.19255034 -0.11352539 99.90234375 C-0.11367142 98.81852921 -0.11381744 97.73471466 -0.1139679 96.61805725 C-0.11327469 93.0578507 -0.10551008 89.49769734 -0.09765625 85.9375 C-0.09578997 83.46028675 -0.09436706 80.98307313 -0.09336853 78.50585938 C-0.08955992 72.00232922 -0.0797438 65.49882158 -0.06866455 58.99530029 C-0.05841479 52.35233829 -0.05386328 45.70937408 -0.04882812 39.06640625 C-0.03812001 26.04426126 -0.02125717 13.02213183 0 0 Z " fill="#F1D89D" transform="translate(521,292)"/>
<path d="M0 0 C0.33 0.66 0.66 1.32 1 2 C1.66 2.33 2.32 2.66 3 3 C2.62488281 3.53367187 2.24976563 4.06734375 1.86328125 4.6171875 C-13.48852348 26.96817776 -16.33908139 51.85465281 -12.71484375 78.203125 C-11.76952103 83.22418339 -10.35189491 87.9748111 -8.70703125 92.81640625 C-7.8862075 96.51238061 -8.26957415 99.31065162 -9 103 C-18.7705603 93.2294397 -18.40482668 71.86209782 -18.4375 59.1875 C-18.21475414 37.45083773 -13.38919144 17.53628613 0 0 Z " fill="#F5D986" transform="translate(616,311)"/>
<path d="M0 0 C0.66 0.66 1.32 1.32 2 2 C1.03900391 3.16402344 1.03900391 3.16402344 0.05859375 4.3515625 C-10.77586928 17.75125325 -16.3119078 31.29821102 -20 48 C-20.17958252 48.81130371 -20.35916504 49.62260742 -20.54418945 50.45849609 C-23.25138009 65.55322267 -20.66223765 81.32124818 -17 96 C-16.80889648 96.77230957 -16.61779297 97.54461914 -16.42089844 98.34033203 C-15.95138292 100.22791692 -15.47629853 102.11411526 -15 104 C-16.32 104 -17.64 104 -19 104 C-19.81871381 101.31425618 -20.63008988 98.6266428 -21.4375 95.9375 C-21.66759766 95.18533203 -21.89769531 94.43316406 -22.13476562 93.65820312 C-29.80053093 67.99455406 -25.00236046 38.39878987 -12.69140625 15 C-9.23226524 8.86461826 -5.59986685 4.29757223 0 0 Z " fill="#F7DB8A" transform="translate(588,309)"/>
<path d="M0 0 C0.66113281 1.80395508 0.66113281 1.80395508 1 4 C0.00292969 5.59643555 0.00292969 5.59643555 -1.578125 7.13671875 C-2.15643066 7.70946533 -2.73473633 8.28221191 -3.33056641 8.87231445 C-3.96397949 9.47132568 -4.59739258 10.07033691 -5.25 10.6875 C-5.89243652 11.31035889 -6.53487305 11.93321777 -7.19677734 12.57495117 C-12.54890967 17.70590454 -18.12288694 22.47848382 -24 27 C-24.87269531 27.68964844 -25.74539063 28.37929688 -26.64453125 29.08984375 C-33.03356047 34.03128873 -39.68121285 38.51653157 -46.4375 42.9375 C-47.30238037 43.5056543 -48.16726074 44.07380859 -49.05834961 44.65917969 C-49.88343018 45.19317383 -50.70851074 45.72716797 -51.55859375 46.27734375 C-52.29392334 46.75421631 -53.02925293 47.23108887 -53.78686523 47.72241211 C-56.12402048 49.07159395 -58.47466226 50.05705559 -61 51 C-60.44999936 47.14999554 -58.82838656 45.57664535 -56 43 C-54.5076917 41.99782599 -52.98306585 41.0429123 -51.4375 40.125 C-33.06002729 28.67593277 -15.71264266 14.87808838 0 0 Z " fill="#C38F32" transform="translate(765,482)"/>
<path d="M0 0 C4.49597089 1.37188236 8.46933373 3.18730442 12.625 5.375 C30.97651584 14.73219263 49.72285787 16.49251069 70 17 C70 17.33 70 17.66 70 18 C65.38 18 60.76 18 56 18 C56 18.66 56 19.32 56 20 C63.59 20 71.18 20 79 20 C79 20.33 79 20.66 79 21 C55.55400862 21.74196175 33.85834737 19.90965246 12 11 C12 10.34 12 9.68 12 9 C10.91138672 8.84724609 10.91138672 8.84724609 9.80078125 8.69140625 C6.70268347 7.92660387 4.78911705 6.76251495 2.1875 4.9375 C1.39730469 4.38964844 0.60710938 3.84179688 -0.20703125 3.27734375 C-0.79871094 2.85582031 -1.39039063 2.43429687 -2 2 C-1.34 1.34 -0.68 0.68 0 0 Z " fill="#E9C26A" transform="translate(603,452)"/>
<path d="M0 0 C0.33 0.66 0.66 1.32 1 2 C1.66 2 2.32 2 3 2 C1.72753834 20.2386171 -11.22700244 39.61953546 -23 53 C-23.99 53.495 -23.99 53.495 -25 54 C-25 53.01 -25 52.02 -25 51 C-24.34 51 -23.68 51 -23 51 C-23 50.34 -23 49.68 -23 49 C-23.66 48.67 -24.32 48.34 -25 48 C-24.55011719 47.44957031 -24.10023438 46.89914062 -23.63671875 46.33203125 C-12.96700789 32.54052123 -5.52055705 16.4684972 0 0 Z " fill="#EEC96F" transform="translate(797,424)"/>
<path d="M0 0 C30.17692413 -0.25348928 60.06377909 -0.36957262 90 4 C90.495 5.485 90.495 5.485 91 7 C88.06243881 7.0269501 85.12512445 7.04681474 82.1875 7.0625 C81.35412109 7.07087891 80.52074219 7.07925781 79.66210938 7.08789062 C78.45844727 7.09272461 78.45844727 7.09272461 77.23046875 7.09765625 C76.49207764 7.10289307 75.75368652 7.10812988 74.99291992 7.11352539 C73 7 73 7 70 6 C68.33369775 5.86328499 66.6631225 5.77558658 64.9921875 5.71875 C64.00476563 5.68136719 63.01734375 5.64398438 62 5.60546875 C60.96875 5.57066406 59.9375 5.53585938 58.875 5.5 C51.86554293 5.2579855 44.96201518 4.86844264 38 4 C38 3.34 38 2.68 38 2 C25.46 1.67 12.92 1.34 0 1 C0 0.67 0 0.34 0 0 Z " fill="#D5AA4C" transform="translate(639,217)"/>
<path d="M0 0 C21.78 0 43.56 0 66 0 C61.95615265 2.02192367 60.40320945 2.24539164 56.03808594 2.22705078 C54.23667145 2.22682419 54.23667145 2.22682419 52.39886475 2.22659302 C51.10708313 2.21627045 49.81530151 2.20594788 48.484375 2.1953125 C47.14487927 2.19158034 45.80538079 2.18873432 44.46588135 2.18673706 C40.94771735 2.17911657 37.4297196 2.15948187 33.91162109 2.1373291 C30.31870777 2.11683643 26.72576747 2.10772804 23.1328125 2.09765625 C16.08847383 2.07623434 9.04424779 2.04211765 2 2 C2 3.32 2 4.64 2 6 C3.60875 5.9071875 3.60875 5.9071875 5.25 5.8125 C11.88757944 5.83616338 20.21460654 6.71503565 25.1875 11.5 C27 14 27 14 28 17 C27.34 17 26.68 17 26 17 C25.67 17.99 25.34 18.98 25 20 C24.79375 18.88625 24.5875 17.7725 24.375 16.625 C23.42326244 12.83482322 23.42326244 12.83482322 20.46875 11.84375 C16.36227668 10.84487811 12.32321983 10.30905324 8.125 9.875 C7.34125 9.78863281 6.5575 9.70226562 5.75 9.61328125 C3.83396841 9.4029851 1.9170634 9.20067256 0 9 C0 6.03 0 3.06 0 0 Z " fill="#F2D178" transform="translate(682,381)"/>
<path d="M0 0 C-13.365 3.465 -13.365 3.465 -27 7 C-27 7.33 -27 7.66 -27 8 C-25.35 8 -23.7 8 -22 8 C-24.63691276 9.75794184 -26.19994341 10.47727992 -29.16015625 11.2890625 C-30.3502832 11.61777344 -30.3502832 11.61777344 -31.56445312 11.953125 C-32.38880859 12.17484375 -33.21316406 12.3965625 -34.0625 12.625 C-34.89072266 12.85445312 -35.71894531 13.08390625 -36.57226562 13.3203125 C-42.71612258 15 -42.71612258 15 -45 15 C-45 39.42 -45 63.84 -45 89 C-45.33 89 -45.66 89 -46 89 C-46.33 66.23 -46.66 43.46 -47 20 C-47.66 20.33 -48.32 20.66 -49 21 C-49 18.03 -49 15.06 -49 12 C-39.99501849 8.25724076 -31.02034334 5.4702841 -21.56713867 3.14990234 C-19.4051575 2.61702839 -17.24861651 2.06507331 -15.09179688 1.51171875 C-13.70601264 1.16552996 -12.31995443 0.82043557 -10.93359375 0.4765625 C-9.69665771 0.16799316 -8.45972168 -0.14057617 -7.18530273 -0.45849609 C-4 -1 -4 -1 0 0 Z " fill="#C7963B" transform="translate(571,227)"/>
<path d="M0 0 C25.41 0 50.82 0 77 0 C77 3.3 77 6.6 77 10 C76.13117188 10.14695312 75.26234375 10.29390625 74.3671875 10.4453125 C67.11958719 11.85591927 62.33480306 12.8074242 58 19 C57.49450706 21.75574568 57.49450706 21.75574568 58 24 C57.01 24.495 57.01 24.495 56 25 C55.70493179 19.98384047 55.86236639 17.00318771 59 13 C62.90013555 8.74530668 66.48588963 8.43156329 71.98828125 8.078125 C72.98408203 8.03945313 72.98408203 8.03945313 74 8 C74 6.35 74 4.7 74 3 C70.04 3 66.08 3 62 3 C62 2.67 62 2.34 62 2 C41.54 1.67 21.08 1.34 0 1 C0 0.67 0 0.34 0 0 Z " fill="#E5BE63" transform="translate(682,380)"/>
<path d="M0 0 C-1.98 0.99 -1.98 0.99 -4 2 C-2.68 2.66 -1.36 3.32 0 4 C-0.84481934 4.13051758 -1.68963867 4.26103516 -2.56005859 4.39550781 C-18.14337627 6.81708201 -33.6713758 9.23618144 -49 13 C-48.33691406 10.6081543 -48.33691406 10.6081543 -47 8 C-44.60839844 6.91333008 -44.60839844 6.91333008 -41.609375 6.26953125 C-40.51343018 6.02477051 -39.41748535 5.78000977 -38.28833008 5.52783203 C-37.12068115 5.29177246 -35.95303223 5.05571289 -34.75 4.8125 C-33.56881592 4.55839355 -32.38763184 4.30428711 -31.1706543 4.04248047 C-20.79606904 1.85182246 -10.64086364 -0.13251387 0 0 Z " fill="#BE8924" transform="translate(600,239)"/>
<path d="M0 0 C0.33 0 0.66 0 1 0 C1.01981934 1.23451904 1.03963867 2.46903809 1.06005859 3.7409668 C1.13690258 8.37998735 1.22548919 13.01872591 1.31738281 17.6574707 C1.35535061 19.65415831 1.3902556 21.65090685 1.421875 23.64770508 C1.64726256 38.78526655 1.64726256 38.78526655 3.77978516 53.74536133 C3.85245605 54.48939209 3.92512695 55.23342285 4 56 C3.34 56.66 2.68 57.32 2 58 C1.34 58.99 0.68 59.98 0 61 C-2.0363915 50.05381584 -2.31089437 39.37419821 -2.26074219 28.27416992 C-2.24989997 25.41108605 -2.26075936 22.54861326 -2.2734375 19.68554688 C-2.27211779 17.85156113 -2.26955932 16.01757575 -2.265625 14.18359375 C-2.26967346 13.33462021 -2.27372192 12.48564667 -2.27789307 11.61094666 C-2.2436478 7.29081878 -2.00978062 3.93623617 0 0 Z " fill="#F1CD73" transform="translate(541,356)"/>
<path d="M0 0 C6.46828171 -0.55245111 10.19199117 3.08264273 15 7 C22.98221677 13.86693698 26.73952442 24.21857325 30 34 C30.99 34.33 31.98 34.66 33 35 C33.33 35.99 33.66 36.98 34 38 C31.69 38 29.38 38 27 38 C26.64808594 36.96101563 26.29617188 35.92203125 25.93359375 34.8515625 C21.08289707 20.96312914 15.06433613 10.00447312 1.4375 3.0625 C0.633125 2.711875 -0.17125 2.36125 -1 2 C-0.67 1.34 -0.34 0.68 0 0 Z " fill="#F4D57C" transform="translate(699,292)"/>
<path d="M0 0 C7.96543221 0.37137867 15.75985714 1.15226743 23.625 2.4375 C24.39440918 2.55971924 25.16381836 2.68193848 25.95654297 2.80786133 C29.75864412 3.45500064 32.50814929 4.25407465 36 6 C32.7 6 29.4 6 26 6 C26.99 6.66 27.98 7.32 29 8 C21.14718685 8.26260756 13.69227361 7.24266302 5.9375 6.0625 C3.48836345 5.69866502 1.0391467 5.3353694 -1.41015625 4.97265625 C-3.11776123 4.71766357 -3.11776123 4.71766357 -4.85986328 4.45751953 C-8.56808729 3.91722939 -12.27884001 3.44133608 -16 3 C-16 2.67 -16 2.34 -16 2 C-8.08 1.505 -8.08 1.505 0 1 C0 0.67 0 0.34 0 0 Z " fill="#E7BD5A" transform="translate(729,222)"/>
<path d="M0 0 C-3.01088801 3.42766965 -5.50446124 4.77316275 -9.8125 6.1875 C-21.83956356 10.59291879 -32.33142273 17.65089915 -42 26 C-42.99 25.34 -43.98 24.68 -45 24 C-43.37660195 22.29115995 -41.70680947 20.62553283 -40 19 C-39.34 19 -38.68 19 -38 19 C-38 18.34 -38 17.68 -38 17 C-35.90396805 15.46270855 -33.82504171 14.06164521 -31.625 12.6875 C-30.98522217 12.28378174 -30.34544434 11.88006348 -29.6862793 11.46411133 C-7.35754948 -2.45251649 -7.35754948 -2.45251649 0 0 Z " fill="#E0B451" transform="translate(636,280)"/>
<path d="M0 0 C1.78344633 2.6751695 2.98350387 5.23667821 4.20898438 8.19213867 C7.27720631 15.58974813 10.77329162 22.3813594 15.24243164 29.03808594 C17.08606826 31.89474902 18.04469582 33.47691923 17.75 36.92578125 C17.5025 37.61027344 17.255 38.29476562 17 39 C12.73014502 35.12997243 10.0963905 31.11584064 7.375 26.0625 C6.9934375 25.37220703 6.611875 24.68191406 6.21875 23.97070312 C5.47356074 22.61522955 4.73703742 21.25494929 4.01000977 19.88964844 C3.11239741 18.21028668 2.17786237 16.55077736 1.23828125 14.89453125 C-0.18210042 11.57433308 -0.30722156 9.21664685 -0.1875 5.625 C-0.16042969 4.56539063 -0.13335938 3.50578125 -0.10546875 2.4140625 C-0.07066406 1.61742187 -0.03585937 0.82078125 0 0 Z " fill="#EAC369" transform="translate(532,431)"/>
<path d="M0 0 C16.5 0 33 0 50 0 C49.67 0.99 49.34 1.98 49 3 C33.16 3.33 17.32 3.66 1 4 C1 3.67 1 3.34 1 3 C3.64 2.67 6.28 2.34 9 2 C6.03 1.67 3.06 1.34 0 1 C0 0.67 0 0.34 0 0 Z " fill="#C19029" transform="translate(628,218)"/>
<path d="M0 0 C-3 2 -3 2 -5 2 C-5 2.66 -5 3.32 -5 4 C-8.74912484 4.7958477 -12.49945424 5.58587808 -16.25 6.375 C-17.29414062 6.59671875 -18.33828125 6.8184375 -19.4140625 7.046875 C-24.77932608 8.17291797 -30.15209948 9.25091161 -35.546875 10.2265625 C-36.97531738 10.48687256 -36.97531738 10.48687256 -38.43261719 10.75244141 C-40.94758452 10.99494586 -42.62026616 10.78647472 -45 10 C-38.89604345 7.11229251 -32.67004281 5.48099694 -26.125 3.875 C-25.08730469 3.61074219 -24.04960938 3.34648437 -22.98046875 3.07421875 C-15.36424184 1.18216742 -7.89319608 -0.25461923 0 0 Z " fill="#B57F1A" transform="translate(585,225)"/>
<path d="M0 0 C10.87813867 0.39846662 20.9518792 2.81171787 31 7 C27.86650268 8.04449911 27.01031744 7.93423645 24 7 C24.33 7.99 24.66 8.98 25 10 C18.71188948 8.52831456 12.47858276 6.92458766 6.3125 5 C5.31863281 4.690625 4.32476563 4.38125 3.30078125 4.0625 C2.54152344 3.711875 1.78226563 3.36125 1 3 C0.67 2.01 0.34 1.02 0 0 Z " fill="#CF9C36" transform="translate(769,230)"/>
<path d="M0 0 C0.99 0.66 1.98 1.32 3 2 C1.58107281 12.00433477 -6.72747054 20.48925693 -13 28 C-13.33 27.01 -13.66 26.02 -14 25 C-13.34 25 -12.68 25 -12 25 C-12 24.34 -12 23.68 -12 23 C-12.66 22.67 -13.32 22.34 -14 22 C-13.49210938 21.33355469 -12.98421875 20.66710937 -12.4609375 19.98046875 C-7.68607467 13.5871599 -3.62816455 7.10515558 0 0 Z " fill="#E3B95B" transform="translate(786,450)"/>
<path d="M0 0 C0.33 0 0.66 0 1 0 C1.87946055 10.83610406 2.12621666 21.57080422 2.0625 32.4375 C2.05746574 33.95898287 2.0529063 35.48046739 2.04882812 37.00195312 C2.03799622 40.66800397 2.02084235 44.33399074 2 48 C2.99 48 3.98 48 5 48 C1.55384615 52.8 1.55384615 52.8 -1.25 53.8125 C-2.11625 53.9053125 -2.11625 53.9053125 -3 54 C-3 54.66 -3 55.32 -3 56 C-6.465 56.495 -6.465 56.495 -10 57 C-9.01 56.34 -8.02 55.68 -7 55 C-8.65 54.67 -10.3 54.34 -12 54 C-10.66666667 53.33333333 -9.33333333 52.66666667 -8 52 C-7.34 51.62875 -6.68 51.2575 -6 50.875 C-4 50 -4 50 0 50 C0 33.5 0 17 0 0 Z " fill="#E9C367" transform="translate(707,401)"/>
<path d="M0 0 C0.33 0 0.66 0 1 0 C1.33 2.31 1.66 4.62 2 7 C2.66 6.34 3.32 5.68 4 5 C4.11069824 5.56396484 4.22139648 6.12792969 4.33544922 6.70898438 C4.84653116 9.30640811 5.36074654 11.9032024 5.875 14.5 C6.04902344 15.386875 6.22304688 16.27375 6.40234375 17.1875 C7.45757623 22.50274509 8.63957667 27.75440373 10 33 C8.68 33 7.36 33 6 33 C5.18128619 30.31425618 4.36991012 27.6266428 3.5625 24.9375 C3.21735352 23.80924805 3.21735352 23.80924805 2.86523438 22.65820312 C1.02483933 16.49688058 -0.16196694 10.52785101 -0.0625 4.0625 C-0.05347656 3.29035156 -0.04445313 2.51820313 -0.03515625 1.72265625 C-0.02355469 1.15417969 -0.01195312 0.58570313 0 0 Z " fill="#EFCC72" transform="translate(563,380)"/>
<path d="M0 0 C-6.61185969 6.61185969 -19.97942274 5.11530476 -28.70703125 5.1328125 C-32 5 -32 5 -35 4 C-35 3.34 -35 2.68 -35 2 C-31.22983769 1.6587842 -27.45878834 1.32851717 -23.6875 1 C-22.63498047 0.90460938 -21.58246094 0.80921875 -20.49804688 0.7109375 C-13.64536517 0.12055261 -6.8771579 -0.12334173 0 0 Z " fill="#F2CF77" transform="translate(702,455)"/>
<path d="M0 0 C23.76 0 47.52 0 72 0 C72 1.65 72 3.3 72 5 C70.02 5 68.04 5 66 5 C66 4.67 66 4.34 66 4 C67.65 4 69.3 4 71 4 C71 3.01 71 2.02 71 1 C49.55 1.33 28.1 1.66 6 2 C6 2.66 6 3.32 6 4 C4.02 4 2.04 4 0 4 C0 2.68 0 1.36 0 0 Z " fill="#C49536" transform="translate(684,383)"/>
<path d="M0 0 C0.33 0 0.66 0 1 0 C1.00808685 0.99780487 1.01617371 1.99560974 1.02450562 3.02365112 C1.10188054 12.41204329 1.18959759 21.80028898 1.28752708 31.18848991 C1.33754286 36.01544172 1.38387225 40.84237107 1.421875 45.66943359 C1.45866132 50.32496522 1.50500275 54.98031136 1.55806351 59.63568497 C1.57664296 61.41471234 1.59173769 63.19377953 1.60334396 64.97286606 C1.62014598 67.45850505 1.64916548 69.9437159 1.68115234 72.42919922 C1.68331253 73.17006775 1.68547272 73.91093628 1.68769836 74.67425537 C1.63261429 78.79005148 1.63261429 78.79005148 4 82 C3.01 82.99 2.02 83.98 1 85 C-0.76582363 83.23417637 -0.11985561 80.89628001 -0.12442017 78.54483032 C-0.12082489 77.76296356 -0.11722961 76.9810968 -0.11352539 76.17553711 C-0.11367142 75.35609116 -0.11381744 74.5366452 -0.1139679 73.69236755 C-0.11326852 70.97066647 -0.10547501 68.24903295 -0.09765625 65.52734375 C-0.09579216 63.64547259 -0.09436821 61.76360094 -0.09336853 59.88172913 C-0.08954267 54.91851471 -0.07971181 49.95532936 -0.06866455 44.99212646 C-0.0584519 39.93160394 -0.05387122 34.87107673 -0.04882812 29.81054688 C-0.0380896 19.87368512 -0.02101236 9.93684497 0 0 Z " fill="#CFA54B" transform="translate(801,243)"/>
<path d="M0 0 C5.79090478 3.15014496 11.44805341 6.44493883 17 10 C16.34 11.32 15.68 12.64 15 14 C11.12750294 12.58220053 7.79251936 10.77015212 4.3125 8.5625 C2.88357422 7.66724609 2.88357422 7.66724609 1.42578125 6.75390625 C-1 5 -1 5 -3 2 C-2.01 2 -1.02 2 0 2 C0 1.34 0 0.68 0 0 Z " fill="#BD8931" transform="translate(605,517)"/>
<path d="M0 0 C-0.99 0.66 -1.98 1.32 -3 2 C4.59 1.67 12.18 1.34 20 1 C20 1.33 20 1.66 20 2 C15.98055657 2.57497079 11.96037492 3.14444235 7.93945312 3.70898438 C6.57368312 3.90151014 5.20811831 4.09549771 3.84277344 4.29101562 C1.87230054 4.5729227 -0.09900124 4.84901642 -2.0703125 5.125 C-3.25383301 5.29257813 -4.43735352 5.46015625 -5.65673828 5.6328125 C-8.80480281 5.97856166 -11.83643856 6.06739944 -15 6 C-14.34 5.34 -13.68 4.68 -13 4 C-16.3 4 -19.6 4 -23 4 C-15.76306482 0.38153241 -8.01154059 -0.30232229 0 0 Z " fill="#C18D25" transform="translate(595,222)"/>
<path d="M0 0 C1.5 1.375 1.5 1.375 3 3 C3 3.66 3 4.32 3 5 C-3.47990359 8.47994823 -10.50312314 12 -18 12 C-18 11.34 -18 10.68 -18 10 C-20.31 10.33 -22.62 10.66 -25 11 C-22.09172713 9.06115142 -20.26982013 8.44009989 -16.9375 7.625 C-11.47657738 6.19250765 -6.0489512 4.56603075 -1 2 C-0.67 1.34 -0.34 0.68 0 0 Z " fill="#EFC971" transform="translate(738,453)"/>
<path d="M0 0 C0.33 0 0.66 0 1 0 C1.64783124 2.87456281 2.29332518 5.74961759 2.9375 8.625 C3.11990234 9.43324219 3.30230469 10.24148438 3.49023438 11.07421875 C4.00582512 13.38031552 4.50473707 15.68946589 5 18 C5.24878906 19.12148438 5.49757813 20.24296875 5.75390625 21.3984375 C6 24 6 24 4 27 C0.37693468 19.87698322 -3.60333131 11.01154217 -1 3 C-0.67 2.01 -0.34 1.02 0 0 Z " fill="#F1D074" transform="translate(602,387)"/>
<path d="M0 0 C0.66 0.66 1.32 1.32 2 2 C1.31292969 2.88042969 0.62585938 3.76085937 -0.08203125 4.66796875 C-0.99233054 5.84103485 -1.9024788 7.01421815 -2.8125 8.1875 C-3.26431641 8.76564453 -3.71613281 9.34378906 -4.18164062 9.93945312 C-6.69181166 13.18252081 -8.97243389 16.42313088 -11 20 C-11.99 19.67 -12.98 19.34 -14 19 C-11.07145807 11.15371784 -6.73727667 4.97275183 0 0 Z " fill="#F1CF78" transform="translate(588,309)"/>
<path d="M0 0 C1.01707031 0.59554687 1.01707031 0.59554687 2.0546875 1.203125 C-2.65739178 4.87768224 -8.22506817 9.05359749 -14.375 9.30078125 C-16.5703125 9.015625 -16.5703125 9.015625 -19.9453125 8.203125 C-16.75064085 6.0733439 -13.46339504 4.23784409 -10.0703125 2.453125 C-9.45800781 2.11152344 -8.84570312 1.76992188 -8.21484375 1.41796875 C-5.05575468 -0.22583991 -3.50363554 -0.94793322 0 0 Z " fill="#BC872B" transform="translate(687.9453125,539.796875)"/>
<path d="M0 0 C0.33 0.66 0.66 1.32 1 2 C-0.98864226 6.35505527 -3.53124566 8.34865747 -7.5625 10.8125 C-8.53316406 11.41707031 -9.50382813 12.02164063 -10.50390625 12.64453125 C-13 14 -13 14 -15 14 C-14.44917655 10.14423584 -12.84489766 8.57209926 -10 6 C-8.282701 4.86554187 -6.53120438 3.78122359 -4.75 2.75 C-3.85796875 2.22921875 -2.9659375 1.7084375 -2.046875 1.171875 C-1.03367187 0.59179688 -1.03367187 0.59179688 0 0 Z " fill="#BE892B" transform="translate(719,519)"/>
<path d="M0 0 C-0.46555704 6.40140935 -2.14711836 11.26769829 -5 17 C-5.99 17 -6.98 17 -8 17 C-7.03393083 11.24904706 -6.1042279 6.04437033 -3 1 C-1 0 -1 0 0 0 Z " fill="#F5D279" transform="translate(781,427)"/>
<path d="M0 0 C-0.99 0 -1.98 0 -3 0 C-3.33 0.99 -3.66 1.98 -4 3 C-5.9609375 3.7734375 -5.9609375 3.7734375 -8.375 4.375 C-12.30674064 5.53643379 -12.30674064 5.53643379 -15 8.6875 C-15.33 9.450625 -15.66 10.21375 -16 11 C-16.33 11 -16.66 11 -17 11 C-17 8.03 -17 5.06 -17 2 C-14.91952703 1.4678559 -12.83547707 0.94968214 -10.75 0.4375 C-9.58984375 0.14746094 -8.4296875 -0.14257812 -7.234375 -0.44140625 C-4.27909017 -0.95179964 -2.75565899 -1.02996165 0 0 Z " fill="#B8801D" transform="translate(539,237)"/>
<path d="M0 0 C5.31027254 1.46032495 9.46330032 3.98320986 14 7 C13.67 7.99 13.34 8.98 13 10 C12.67 9.34 12.34 8.68 12 8 C11.34 8.268125 10.68 8.53625 10 8.8125 C5.42599171 9.09837552 2.61832206 6.59477686 -1 4 C-0.67 2.68 -0.34 1.36 0 0 Z " fill="#B5822A" transform="translate(621,528)"/>
<path d="M0 0 C2.48764445 2.84302222 4.5595859 5.75894033 6.375 9.0625 C6.91253906 10.03896484 6.91253906 10.03896484 7.4609375 11.03515625 C8 13 8 13 7.1015625 15.24609375 C6.73804688 15.82488281 6.37453125 16.40367187 6 17 C-0.83318386 8.5309417 -0.83318386 8.5309417 -1.2421875 4.77734375 C-0.9375 2.875 -0.9375 2.875 0 0 Z " fill="#E0B965" transform="translate(542,453)"/>
<path d="M0 0 C-0.5112012 4.50343911 -2.17521358 6.87525426 -5.0625 10.3125 C-5.79597656 11.19550781 -6.52945313 12.07851563 -7.28515625 12.98828125 C-7.85105469 13.65214844 -8.41695312 14.31601562 -9 15 C-9.33 14.01 -9.66 13.02 -10 12 C-9.34 12 -8.68 12 -8 12 C-8 11.34 -8 10.68 -8 10 C-8.66 9.67 -9.32 9.34 -10 9 C-9.04663979 7.68388323 -8.08714226 6.37221039 -7.125 5.0625 C-6.59132813 4.33160156 -6.05765625 3.60070312 -5.5078125 2.84765625 C-3.72258144 0.66005446 -2.83689522 0 0 0 Z " fill="#DEB259" transform="translate(782,463)"/>
<path d="M0 0 C-2.75168587 1.51654976 -4.99701281 2.30364962 -8.1171875 2.6328125 C-8.88933594 2.71660156 -9.66148437 2.80039063 -10.45703125 2.88671875 C-11.65392578 3.00466797 -11.65392578 3.00466797 -12.875 3.125 C-13.66519531 3.21136719 -14.45539062 3.29773438 -15.26953125 3.38671875 C-19.53275761 3.83361269 -23.70696739 4.09662774 -28 4 C-27 2 -27 2 -24 1 C-16.02751513 -0.12503706 -8.0343673 -0.11495915 0 0 Z " fill="#AD7817" transform="translate(619,221)"/>
<path d="M0 0 C5.28 0.33 10.56 0.66 16 1 C16.33 1.99 16.66 2.98 17 4 C11.06 4 5.12 4 -1 4 C0.32 3.67 1.64 3.34 3 3 C3 2.34 3 1.68 3 1 C2.01 0.67 1.02 0.34 0 0 Z " fill="#E1B44C" transform="translate(713,220)"/>
<path d="M0 0 C0.33 0.66 0.66 1.32 1 2 C1.66 2.33 2.32 2.66 3 3 C2.04454634 4.46022163 1.08553322 5.91811468 0.125 7.375 C-0.40867187 8.18710937 -0.94234375 8.99921875 -1.4921875 9.8359375 C-3 12 -3 12 -5 14 C-5.99 13.34 -6.98 12.68 -8 12 C-6.85573734 10.186508 -5.70954608 8.37423275 -4.5625 6.5625 C-3.60537109 5.04849609 -3.60537109 5.04849609 -2.62890625 3.50390625 C-1 1 -1 1 0 0 Z " fill="#F3D37D" transform="translate(616,311)"/>
<path d="M0 0 C2.67733998 2.67031284 3.00280229 4.03721441 3.29296875 7.890625 C3.27314945 9.34404009 3.23754845 10.79731167 3.1875 12.25 C3.16719727 13.36761719 3.16719727 13.36761719 3.14648438 14.5078125 C3.11127204 16.33885416 3.05746851 18.16952169 3 20 C2.34 20.33 1.68 20.66 1 21 C-0.10087193 13.98194143 -0.09733092 7.09434233 0 0 Z " fill="#F2D581" transform="translate(563,367)"/>
<path d="M0 0 C-3 2 -3 2 -5 2 C-5 2.66 -5 3.32 -5 4 C-8.63 4.33 -12.26 4.66 -16 5 C-16.33 4.01 -16.66 3.02 -17 2 C-15.10507994 1.66151348 -13.20901534 1.32943089 -11.3125 1 C-9.72888672 0.7215625 -9.72888672 0.7215625 -8.11328125 0.4375 C-5.35095938 0.04931926 -2.78257957 -0.08259976 0 0 Z " fill="#BC8621" transform="translate(585,225)"/>
<path d="M0 0 C6.93 0.33 13.86 0.66 21 1 C21 1.33 21 1.66 21 2 C15.72 2 10.44 2 5 2 C5 2.66 5 3.32 5 4 C2.36 3.67 -0.28 3.34 -3 3 C-2.01 2.67 -1.02 2.34 0 2 C0 1.34 0 0.68 0 0 Z " fill="#E5BF66" transform="translate(662,455)"/>
<path d="M0 0 C5.95507399 0.3916035 10.62819824 1.37124595 16 4 C12.86650268 5.04449911 12.01031744 4.93423645 9 4 C9.33 4.99 9.66 5.98 10 7 C7.36 6.34 4.72 5.68 2 5 C2 4.67 2 4.34 2 4 C3.65 4 5.3 4 7 4 C7 3.34 7 2.68 7 2 C4.69 1.67 2.38 1.34 0 1 C0 0.67 0 0.34 0 0 Z " fill="#D2A143" transform="translate(784,233)"/>
<path d="M0 0 C1.58357459 0.31127516 3.16684993 0.62407289 4.75 0.9375 C5.63171875 1.11152344 6.5134375 1.28554687 7.421875 1.46484375 C9.63235053 1.92368488 11.81512068 2.43336074 14 3 C14 3.66 14 4.32 14 5 C4.26004228 5.57293869 4.26004228 5.57293869 0 2 C0 1.34 0 0.68 0 0 Z " fill="#C18E2A" transform="translate(777,232)"/>
<path d="M0 0 C0 0.33 0 0.66 0 1 C-7.7629761 3.94397288 -14.74447081 4.34937193 -23 4 C-16.05317202 0.13704426 -7.79971079 -0.29432871 0 0 Z " fill="#CFA557" transform="translate(595,222)"/>
<path d="M0 0 C1.64666203 0.1135629 3.29236082 0.24117381 4.9375 0.375 C5.85402344 0.44460937 6.77054688 0.51421875 7.71484375 0.5859375 C8.84599609 0.79089844 8.84599609 0.79089844 10 1 C10.33 1.66 10.66 2.32 11 3 C10.01 3.495 10.01 3.495 9 4 C8.67 4.66 8.34 5.32 8 6 C5.36 4.68 2.72 3.36 0 2 C0 1.34 0 0.68 0 0 Z " fill="#C3912F" transform="translate(793,237)"/>
<path d="M0 0 C6.93 0.495 6.93 0.495 14 1 C13.01 2.32 12.02 3.64 11 5 C9.35153231 4.55123384 7.70626545 4.09069512 6.0625 3.625 C5.14597656 3.36976563 4.22945312 3.11453125 3.28515625 2.8515625 C1 2 1 2 0 0 Z " fill="#DAAC48" transform="translate(754,227)"/>
<path d="M0 0 C0.99 0.33 1.98 0.66 3 1 C2.67 1.33 2.34 1.66 2 2 C0.82671029 7.99681407 0.9008333 13.90675749 1 20 C0.34 20.33 -0.32 20.66 -1 21 C-1.02888146 17.68751813 -1.04675799 14.37506833 -1.0625 11.0625 C-1.07087891 10.11697266 -1.07925781 9.17144531 -1.08789062 8.19726562 C-1.09111328 7.29814453 -1.09433594 6.39902344 -1.09765625 5.47265625 C-1.10289307 4.64000244 -1.10812988 3.80734863 -1.11352539 2.94946289 C-1 1 -1 1 0 0 Z " fill="#CE9E3E" transform="translate(539,251)"/>
<path d="M0 0 C1.41702513 0.14230808 2.8336096 0.28900746 4.25 0.4375 C5.43335938 0.55931641 5.43335938 0.55931641 6.640625 0.68359375 C8.82364639 0.97634993 10.8773182 1.42064419 13 2 C13 2.66 13 3.32 13 4 C8.4932782 4.17673419 5.03374456 4.13551182 1 2 C0.67 1.34 0.34 0.68 0 0 Z " fill="#F4D17C" transform="translate(649,453)"/>
<path d="M0 0 C0.33 0 0.66 0 1 0 C1.08703823 3.43734063 1.14040272 6.87439837 1.1875 10.3125 C1.21263672 11.28896484 1.23777344 12.26542969 1.26367188 13.27148438 C1.27333984 14.20927734 1.28300781 15.14707031 1.29296875 16.11328125 C1.3086792 16.97735596 1.32438965 17.84143066 1.34057617 18.73168945 C0.93240678 21.45018536 0.10407096 22.30363829 -2 24 C-1.84660156 23.02933594 -1.69320312 22.05867188 -1.53515625 21.05859375 C-0.91790015 16.73780106 -0.66519605 12.41858682 -0.4375 8.0625 C-0.39431641 7.28326172 -0.35113281 6.50402344 -0.30664062 5.70117188 C-0.20171923 3.80092883 -0.1004755 1.90048331 0 0 Z " fill="#EFCD73" transform="translate(740,418)"/>
<path d="M0 0 C-1.98 0.99 -1.98 0.99 -4 2 C-2.68 2.66 -1.36 3.32 0 4 C-3.3 4.33 -6.6 4.66 -10 5 C-9.34 4.34 -8.68 3.68 -8 3 C-10.31 2.67 -12.62 2.34 -15 2 C-15 1.67 -15 1.34 -15 1 C-9.92928099 0.28832014 -5.11791642 -0.10662326 0 0 Z " fill="#C28E2A" transform="translate(600,239)"/>
<path d="M0 0 C3.49725011 0.44290832 6.99141949 0.84361924 10.5 1.1875 C11.34691406 1.27128906 12.19382812 1.35507812 13.06640625 1.44140625 C13.68386719 1.50199219 14.30132813 1.56257813 14.9375 1.625 C14.9375 1.955 14.9375 2.285 14.9375 2.625 C12.02058475 2.67901695 9.10467276 2.71868066 6.1875 2.75 C5.3625 2.76675781 4.5375 2.78351563 3.6875 2.80078125 C2.88828125 2.80722656 2.0890625 2.81367188 1.265625 2.8203125 C0.5324707 2.83078613 -0.20068359 2.84125977 -0.95605469 2.85205078 C-3.36146076 2.59277544 -4.97501494 1.81725925 -7.0625 0.625 C-4.09036337 -0.36571221 -2.98750973 -0.40122635 0 0 Z " fill="#C39337" transform="translate(662.0625,466.375)"/>
<path d="M0 0 C1.62789352 0.03792583 3.25428742 0.15512646 4.875 0.3125 C6.20144531 0.43044922 6.20144531 0.43044922 7.5546875 0.55078125 C10 1 10 1 13 3 C11.22950311 3.05410687 9.45853151 3.09284119 7.6875 3.125 C6.20830078 3.15980469 6.20830078 3.15980469 4.69921875 3.1953125 C2 3 2 3 -1 1 C-0.67 0.67 -0.34 0.34 0 0 Z " fill="#C39333" transform="translate(638,464)"/>
<path d="M0 0 C2.78637633 4.1795645 1.79562512 6.14668677 1 11 C0.67 10.01 0.34 9.02 0 8 C-0.66 8 -1.32 8 -2 8 C-1.125 1.125 -1.125 1.125 0 0 Z " fill="#F6D480" transform="translate(800,418)"/>
<path d="M0 0 C2.64 0 5.28 0 8 0 C8 0.66 8 1.32 8 2 C5.64561267 3.42944945 4.51967567 4.08661261 1.75 3.625 C1.1725 3.41875 0.595 3.2125 0 3 C0 2.01 0 1.02 0 0 Z " fill="#AB7820" transform="translate(661,550)"/>
<path d="M0 0 C1.98 0.66 3.96 1.32 6 2 C5.67 3.32 5.34 4.64 5 6 C3.02 5.34 1.04 4.68 -1 4 C-0.67 2.68 -0.34 1.36 0 0 Z " fill="#B17B22" transform="translate(621,528)"/>
<path d="M0 0 C0.99 0.33 1.98 0.66 3 1 C1.7625 2.0828125 1.7625 2.0828125 0.5 3.1875 C-2.24407806 5.72917366 -2.24407806 5.72917366 -2.3125 8.8125 C-2.1578125 9.8953125 -2.1578125 9.8953125 -2 11 C-2.99 11.495 -2.99 11.495 -4 12 C-4.29554656 4.31578947 -4.29554656 4.31578947 -2 1 C-1.34 0.67 -0.68 0.34 0 0 Z " fill="#E9C265" transform="translate(742,393)"/>
<path d="M0 0 C2.99324263 1.0975223 3.84610901 1.67682892 5.25 4.625 C5.4975 5.40875 5.745 6.1925 6 7 C5.34 7 4.68 7 4 7 C3.67 7.99 3.34 8.98 3 10 C0 3.375 0 3.375 0 0 Z " fill="#F3CF75" transform="translate(704,391)"/>
<path d="M0 0 C0 0.66 0 1.32 0 2 C-1.98 2.33 -3.96 2.66 -6 3 C-6 3.99 -6 4.98 -6 6 C-6.99 5.67 -7.98 5.34 -9 5 C-9 4.34 -9 3.68 -9 3 C-5.63316085 0.56839395 -4.26649636 0 0 0 Z " fill="#B37C1F" transform="translate(696,535)"/>
<path d="M0 0 C0.33 0.99 0.66 1.98 1 3 C-0.40445835 5.2636564 -2.1967913 7.0208685 -4 9 C-4.8125 7.3125 -4.8125 7.3125 -5 5 C-2.5625 2.25 -2.5625 2.25 0 0 Z " fill="#D7A64B" transform="translate(771,476)"/>
<path d="M0 0 C3.37462715 0.54723683 5.08235 1.0549 8 3 C8 3.66 8 4.32 8 5 C5.36 4.34 2.72 3.68 0 3 C0 2.01 0 1.02 0 0 Z " fill="#F0CB73" transform="translate(613,458)"/>
<path d="M0 0 C0.33 0 0.66 0 1 0 C1 1.98 1 3.96 1 6 C1.66 6 2.32 6 3 6 C2.67 7.98 2.34 9.96 2 12 C1.34 11.01 0.68 10.02 0 9 C-0.66 9 -1.32 9 -2 9 C-1.34 6.03 -0.68 3.06 0 0 Z " fill="#EEC86C" transform="translate(780,419)"/>
<path d="M0 0 C0.66 0 1.32 0 2 0 C2.33 2.64 2.66 5.28 3 8 C2.01 8.33 1.02 8.66 0 9 C-1.125 2.25 -1.125 2.25 0 0 Z " fill="#F4D489" transform="translate(528,425)"/>
<path d="M0 0 C2.3828125 -0.29296875 2.3828125 -0.29296875 5.125 -0.1875 C6.03507813 -0.16042969 6.94515625 -0.13335937 7.8828125 -0.10546875 C8.58148437 -0.07066406 9.28015625 -0.03585938 10 0 C5.82744729 3.58050131 3.33135955 3.26656798 -2 3 C-1.34 2.01 -0.68 1.02 0 0 Z " fill="#B6821E" transform="translate(617,220)"/>
<path d="M0 0 C0.99 0 1.98 0 3 0 C3.66 0.66 4.32 1.32 5 2 C4.625 5.625 4.625 5.625 4 9 C1.3144406 6.3144406 0.93950026 3.62378672 0 0 Z " fill="#EFCD71" transform="translate(603,405)"/>
<path d="M0 0 C0.33 0 0.66 0 1 0 C1 2.97 1 5.94 1 9 C0.34 9 -0.32 9 -1 9 C-1.625 5.625 -1.625 5.625 -2 2 C-1.34 1.34 -0.68 0.68 0 0 Z " fill="#EAC263" transform="translate(758,381)"/>
<path d="M0 0 C1.32 0.33 2.64 0.66 4 1 C3.39816251 3.02045442 2.72693904 5.02111039 2 7 C1.01 7.495 1.01 7.495 0 8 C0 5.36 0 2.72 0 0 Z " fill="#AE7719" transform="translate(522,240)"/>
<path d="M0 0 C-2.39763185 2.39763185 -3.33273498 2.34280586 -6.625 2.625 C-7.44226563 2.69976562 -8.25953125 2.77453125 -9.1015625 2.8515625 C-9.72804688 2.90054688 -10.35453125 2.94953125 -11 3 C-11 2.34 -11 1.68 -11 1 C-7.32589215 -0.17571451 -3.83070817 -0.07366746 0 0 Z " fill="#AB7416" transform="translate(571,228)"/>
<path d="M0 0 C0.99 0.66 1.98 1.32 3 2 C2.25 6.75 2.25 6.75 0 9 C-0.66 8.67 -1.32 8.34 -2 8 C-1.34 5.36 -0.68 2.72 0 0 Z " fill="#E8C061" transform="translate(786,450)"/>
<path d="M0 0 C1.5625 1.6875 1.5625 1.6875 3 4 C2.6875 6.75 2.6875 6.75 2 9 C0.4375 7.875 0.4375 7.875 -1 6 C-0.6875 2.8125 -0.6875 2.8125 0 0 Z " fill="#D9AF56" transform="translate(547,461)"/>
<path d="M0 0 C1.9453125 -0.29296875 1.9453125 -0.29296875 4.125 -0.1875 C5.40375 -0.125625 6.6825 -0.06375 8 0 C7.67 0.66 7.34 1.32 7 2 C4.93359375 2.4140625 4.93359375 2.4140625 2.4375 2.625 C1.61121094 2.69976562 0.78492188 2.77453125 -0.06640625 2.8515625 C-1.02353516 2.92503906 -1.02353516 2.92503906 -2 3 C-1.34 2.01 -0.68 1.02 0 0 Z " fill="#CEA03F" transform="translate(714,460)"/>
<path d="M0 0 C0.33 0.66 0.66 1.32 1 2 C1.66 2.33 2.32 2.66 3 3 C1.68 4.32 0.36 5.64 -1 7 C-1.66 6.67 -2.32 6.34 -3 6 C-1.125 1.125 -1.125 1.125 0 0 Z " fill="#F0CD72" transform="translate(616,311)"/>
<path d="M0 0 C1.09658936 3.28976808 0.79953138 4.71303767 0 8 C-0.99 8 -1.98 8 -3 8 C-2.67 6.02 -2.34 4.04 -2 2 C-1.34 2 -0.68 2 0 2 C0 1.34 0 0.68 0 0 Z " fill="#FADA82" transform="translate(776,436)"/>
<path d="M0 0 C1.32 1.32 2.64 2.64 4 4 C3.67 4.66 3.34 5.32 3 6 C2.01 6 1.02 6 0 6 C-1 3 -1 3 0 0 Z " fill="#ECC469" transform="translate(580,427)"/>
</svg>
